<svg version="1.1" xmlns="http://www.w3.org/2000/svg" width="765" height="660"><defs><marker id="arrow" viewBox="0 -5 10 10" refX="20" refY="-1.5" markerWidth="6" markerHeight="6" orient="auto"><path d="M0,-5L10,0L0,5"></path></marker></defs><g transform="translate(0, 0)"><g><path fill="none" marker-end="url(#arrow)" stroke-width="2.5" style="stroke: #0000ff;" d="M394.01102995516544,396.7334117262762A201.20132611805076,201.20132611805076 0 0,1 255.50312147183635,250.79666885719627"></path><path fill="none" marker-end="url(#arrow)" stroke-width="2.5" style="stroke: #0000ff;" d="M612.4475731538826,402.220937390481A200.01012283087272,200.01012283087272 0 0,1 426.65815981194197,476.2907904001795"></path><path fill="none" marker-end="url(#arrow)" stroke-width="2.5" style="stroke: #0000ff;" d="M359.7535636306795,306.2155744371531A199.1931412052587,199.1931412052587 0 0,1 187.91949835892382,205.46359423130232"></path><path fill="none" marker-end="url(#arrow)" stroke-width="2.5" style="stroke: #0000ff;" d="M187.91949835892382,205.46359423130232A198.07926064776288,198.07926064776288 0 0,1 383.47720804879225,173.95842513768332"></path><path fill="none" marker-end="url(#arrow)" stroke-width="2.5" style="stroke: #0000ff;" d="M581.5271206829303,158.107127461774A200.68447718006718,200.68447718006718 0 0,1 402.412445537667,67.5963958956018"></path><path fill="none" marker-end="url(#arrow)" stroke-width="2.5" style="stroke: #0000ff;" d="M359.7535636306795,306.2155744371531A198.7806020000402,198.7806020000402 0 0,1 195.0669562448931,417.5351552810381"></path><path fill="none" marker-end="url(#arrow)" stroke-width="2.5" style="stroke: #0000ff;" d="M369.60420396627023,507.0940355722916A201.11984303654006,201.11984303654006 0 0,1 359.7535636306795,306.2155744371531"></path><path fill="none" marker-end="url(#arrow)" stroke-width="2.5" style="stroke: #0000ff;" d="M255.50312147183635,250.79666885719627A198.85804455521742,198.85804455521742 0 0,1 255.8393351686642,449.6544291902416"></path><path fill="none" marker-end="url(#arrow)" stroke-width="2.5" style="stroke: #0000ff;" d="M383.47720804879225,173.95842513768332A198.6832442165167,198.6832442165167 0 0,1 581.5271206829303,158.107127461774"></path><path fill="none" marker-end="url(#arrow)" stroke-width="2.5" style="stroke: #0000ff;" d="M255.50312147183635,250.79666885719627A199.81401835809183,199.81401835809183 0 0,1 327.31839325883175,437.2590207424169"></path><path fill="none" marker-end="url(#arrow)" stroke-width="2.5" style="stroke: #0000ff;" d="M161.38654235021704,275.2960815711032A196.46009909822374,196.46009909822374 0 0,1 333.59282634915223,369.8559371598358"></path><path fill="none" marker-end="url(#arrow)" stroke-width="2.5" style="stroke: #0000ff;" d="M612.4475731538826,402.220937390481A199.45472492137947,199.45472492137947 0 0,1 457.43162554133903,276.71299629013345"></path><path fill="none" marker-end="url(#arrow)" stroke-width="2.5" style="stroke: #0000ff;" d="M233.76751723701355,137.13743287241792A198.4825683605748,198.4825683605748 0 0,1 398.73261128926276,247.50884079740007"></path></g><g><g transform="translate(203.15289349701942, 346.6605513139143)"><circle class="node" r="15" style="fill: #ff0000;"></circle><text font-family="sans-serif" fill="yellow" font-size="20" text-anchor="middle" x="0" y="5">13</text></g><g transform="translate(394.01102995516544, 396.7334117262762)"><circle class="node" r="15" style="fill: #ff0000;"></circle><text font-family="sans-serif" fill="yellow" font-size="20" text-anchor="middle" x="0" y="5">14</text></g><g transform="translate(299.97177243901416, 158.00186921155634)"><circle class="node" r="15" style="fill: #ff0000;"></circle><text font-family="sans-serif" fill="yellow" font-size="20" text-anchor="middle" x="0" y="5">15</text></g><g transform="translate(519.5348941043637, 111.99650706906786)"><circle class="node" r="15" style="fill: #ff0000;"></circle><text font-family="sans-serif" fill="yellow" font-size="20" text-anchor="middle" x="0" y="5">16</text></g><g transform="translate(502.2931699117509, 232.85169075248982)"><circle class="node" r="15" style="fill: #ff0000;"></circle><text font-family="sans-serif" fill="yellow" font-size="20" text-anchor="middle" x="0" y="5">17</text></g><g transform="translate(369.60420396627023, 507.0940355722916)"><circle class="node" r="15" style="fill: #ff0000;"></circle><text font-family="sans-serif" fill="yellow" font-size="20" text-anchor="middle" x="0" y="5">18</text></g><g transform="translate(359.7535636306795, 306.2155744371531)"><circle class="node" r="15" style="fill: #0000ff;"></circle><text font-family="sans-serif" fill="yellow" font-size="20" text-anchor="middle" x="0" y="5">19</text></g><g transform="translate(612.4475731538826, 402.220937390481)"><circle class="node" r="15" style="fill: #ff0000;"></circle><text font-family="sans-serif" fill="yellow" font-size="20" text-anchor="middle" x="0" y="5">20</text></g><g transform="translate(255.50312147183635, 250.79666885719627)"><circle class="node" r="15" style="fill: #0000ff;"></circle><text font-family="sans-serif" fill="yellow" font-size="20" text-anchor="middle" x="0" y="5">21</text></g><g transform="translate(266.60092386350163, 323.96121989709707)"><circle class="node" r="15" style="fill: #ff0000;"></circle><text font-family="sans-serif" fill="yellow" font-size="20" text-anchor="middle" x="0" y="5">22</text></g><g transform="translate(440.79235672874256, 344.7990677207281)"><circle class="node" r="15" style="fill: #ff0000;"></circle><text font-family="sans-serif" fill="yellow" font-size="20" text-anchor="middle" x="0" y="5">23</text></g><g transform="translate(544.9874008608201, 388.41567368947386)"><circle class="node" r="15" style="fill: #ff0000;"></circle><text font-family="sans-serif" fill="yellow" font-size="20" text-anchor="middle" x="0" y="5">24</text></g><g transform="translate(609.6885229825924, 323.2119545754558)"><circle class="node" r="15" style="fill: #ff0000;"></circle><text font-family="sans-serif" fill="yellow" font-size="20" text-anchor="middle" x="0" y="5">25</text></g><g transform="translate(426.65815981194197, 476.2907904001795)"><circle class="node" r="15" style="fill: #0000ff;"></circle><text font-family="sans-serif" fill="yellow" font-size="20" text-anchor="middle" x="0" y="5">26</text></g><g transform="translate(187.91949835892382, 205.46359423130232)"><circle class="node" r="15" style="fill: #0000ff;"></circle><text font-family="sans-serif" fill="yellow" font-size="20" text-anchor="middle" x="0" y="5">27</text></g><g transform="translate(473.61293484596956, 522.125679948186)"><circle class="node" r="15" style="fill: #ff0000;"></circle><text font-family="sans-serif" fill="yellow" font-size="20" text-anchor="middle" x="0" y="5">28</text></g><g transform="translate(581.5271206829303, 158.107127461774)"><circle class="node" r="15" style="fill: #0000ff;"></circle><text font-family="sans-serif" fill="yellow" font-size="20" text-anchor="middle" x="0" y="5">29</text></g><g transform="translate(527.8501064433057, 316.8875466945255)"><circle class="node" r="15" style="fill: #ff0000;"></circle><text font-family="sans-serif" fill="yellow" font-size="20" text-anchor="middle" x="0" y="5">30</text></g><g transform="translate(195.0669562448931, 417.5351552810381)"><circle class="node" r="15" style="fill: #0000ff;"></circle><text font-family="sans-serif" fill="yellow" font-size="20" text-anchor="middle" x="0" y="5">31</text></g><g transform="translate(621.6095923978602, 255.69443391744935)"><circle class="node" r="15" style="fill: #ff0000;"></circle><text font-family="sans-serif" fill="yellow" font-size="20" text-anchor="middle" x="0" y="5">32</text></g><g transform="translate(544.6024145784992, 473.2295669555349)"><circle class="node" r="15" style="fill: #ff0000;"></circle><text font-family="sans-serif" fill="yellow" font-size="20" text-anchor="middle" x="0" y="5">33</text></g><g transform="translate(161.38654235021704, 275.2960815711032)"><circle class="node" r="15" style="fill: #ff0000;"></circle><text font-family="sans-serif" fill="yellow" font-size="20" text-anchor="middle" x="0" y="5">34</text></g><g transform="translate(255.8393351686642, 449.6544291902416)"><circle class="node" r="15" style="fill: #0000ff;"></circle><text font-family="sans-serif" fill="yellow" font-size="20" text-anchor="middle" x="0" y="5">35</text></g><g transform="translate(398.73261128926276, 247.50884079740007)"><circle class="node" r="15" style="fill: #0000ff;"></circle><text font-family="sans-serif" fill="yellow" font-size="20" text-anchor="middle" x="0" y="5">36</text></g><g transform="translate(457.43162554133903, 276.71299629013345)"><circle class="node" r="15" style="fill: #0000ff;"></circle><text font-family="sans-serif" fill="yellow" font-size="20" text-anchor="middle" x="0" y="5">37</text></g><g transform="translate(438.42114621934553, 112.81162364353328)"><circle class="node" r="15" style="fill: #ff0000;"></circle><text font-family="sans-serif" fill="yellow" font-size="20" text-anchor="middle" x="0" y="5">38</text></g><g transform="translate(465.79270677758063, 171.85376590834807)"><circle class="node" r="15" style="fill: #ff0000;"></circle><text font-family="sans-serif" fill="yellow" font-size="20" text-anchor="middle" x="0" y="5">39</text></g><g transform="translate(318.56845087139163, 229.4759843520359)"><circle class="node" r="15" style="fill: #ff0000;"></circle><text font-family="sans-serif" fill="yellow" font-size="20" text-anchor="middle" x="0" y="5">40</text></g><g transform="translate(402.412445537667, 67.5963958956018)"><circle class="node" r="15" style="fill: #0000ff;"></circle><text font-family="sans-serif" fill="yellow" font-size="20" text-anchor="middle" x="0" y="5">41</text></g><g transform="translate(564.9147175167858, 221.21325395446783)"><circle class="node" r="15" style="fill: #ff0000;"></circle><text font-family="sans-serif" fill="yellow" font-size="20" text-anchor="middle" x="0" y="5">42</text></g><g transform="translate(233.76751723701355, 137.13743287241792)"><circle class="node" r="15" style="fill: #ff0000;"></circle><text font-family="sans-serif" fill="yellow" font-size="20" text-anchor="middle" x="0" y="5">43</text></g><g transform="translate(482.3051481126823, 419.92842343087705)"><circle class="node" r="15" style="fill: #ff0000;"></circle><text font-family="sans-serif" fill="yellow" font-size="20" text-anchor="middle" x="0" y="5">44</text></g><g transform="translate(327.31839325883175, 437.2590207424169)"><circle class="node" r="15" style="fill: #0000ff;"></circle><text font-family="sans-serif" fill="yellow" font-size="20" text-anchor="middle" x="0" y="5">45</text></g><g transform="translate(333.59282634915223, 369.8559371598358)"><circle class="node" r="15" style="fill: #0000ff;"></circle><text font-family="sans-serif" fill="yellow" font-size="20" text-anchor="middle" x="0" y="5">46</text></g><g transform="translate(297.0041932868833, 509.80384173430866)"><circle class="node" r="15" style="fill: #ff0000;"></circle><text font-family="sans-serif" fill="yellow" font-size="20" text-anchor="middle" x="0" y="5">47</text></g><g transform="translate(383.47720804879225, 173.95842513768332)"><circle class="node" r="15" style="fill: #0000ff;"></circle><text font-family="sans-serif" fill="yellow" font-size="20" text-anchor="middle" x="0" y="5">48</text></g><g transform="translate(324.2313231311065, 89.16005396228444)"><circle class="node" r="15" style="fill: #ff0000;"></circle><text font-family="sans-serif" fill="yellow" font-size="20" text-anchor="middle" x="0" y="5">49</text></g></g></g><g transform="translate(0, 600)"><g transform="translate(30,30)"><circle class="node" r="15" style="fill: #0000ff;"></circle><text font-family="sans-serif" fill="yellow" font-size="20" text-anchor="middle" x="0" y="5">0</text></g><g transform="translate(75,30)"><circle class="node" r="15" style="fill: #0000ff;"></circle><text font-family="sans-serif" fill="yellow" font-size="20" text-anchor="middle" x="0" y="5">1</text></g><g transform="translate(120,30)"><circle class="node" r="15" style="fill: #0000ff;"></circle><text font-family="sans-serif" fill="yellow" font-size="20" text-anchor="middle" x="0" y="5">2</text></g><g transform="translate(165,30)"><circle class="node" r="15" style="fill: #0000ff;"></circle><text font-family="sans-serif" fill="yellow" font-size="20" text-anchor="middle" x="0" y="5">3</text></g><g transform="translate(210,30)"><circle class="node" r="15" style="fill: #0000ff;"></circle><text font-family="sans-serif" fill="yellow" font-size="20" text-anchor="middle" x="0" y="5">4</text></g><g transform="translate(255,30)"><circle class="node" r="15" style="fill: #0000ff;"></circle><text font-family="sans-serif" fill="yellow" font-size="20" text-anchor="middle" x="0" y="5">5</text></g><g transform="translate(300,30)"><circle class="node" r="15" style="fill: #0000ff;"></circle><text font-family="sans-serif" fill="yellow" font-size="20" text-anchor="middle" x="0" y="5">6</text></g><g transform="translate(345,30)"><circle class="node" r="15" style="fill: #0000ff;"></circle><text font-family="sans-serif" fill="yellow" font-size="20" text-anchor="middle" x="0" y="5">7</text></g><g transform="translate(390,30)"><circle class="node" r="15" style="fill: #0000ff;"></circle><text font-family="sans-serif" fill="yellow" font-size="20" text-anchor="middle" x="0" y="5">8</text></g><g transform="translate(435,30)"><circle class="node" r="15" style="fill: #0000ff;"></circle><text font-family="sans-serif" fill="yellow" font-size="20" text-anchor="middle" x="0" y="5">9</text></g><g transform="translate(480,30)"><circle class="node" r="15" style="fill: #0000ff;"></circle><text font-family="sans-serif" fill="yellow" font-size="20" text-anchor="middle" x="0" y="5">10</text></g><g transform="translate(525,30)"><circle class="node" r="15" style="fill: #0000ff;"></circle><text font-family="sans-serif" fill="yellow" font-size="20" text-anchor="middle" x="0" y="5">11</text></g><g transform="translate(570,30)"><circle class="node" r="15" style="fill: #0000ff;"></circle><text font-family="sans-serif" fill="yellow" font-size="20" text-anchor="middle" x="0" y="5">12</text></g></g></svg>