<svg version="1.1" xmlns="http://www.w3.org/2000/svg" width="1559" height="660"><g transform="translate(779.5, 30)"><g><line class="link" style="stroke-width: 1px; stroke: #0000ff;" y2="150" x2="-543.75" y1="0" x1="0"></line><line class="link" style="stroke-width: 1px; stroke: #0000ff;" y2="150" x2="-56.25" y1="0" x1="0"></line><line class="link" style="stroke-width: 1px; stroke: #0000ff;" y2="300" x2="-731.25" y1="150" x1="-543.75"></line><line class="link" style="stroke-width: 1px; stroke: #0000ff;" y2="300" x2="-356.25" y1="150" x1="-543.75"></line><line class="link" style="stroke-width: 1px; stroke: #0000ff;" y2="450" x2="-731.25" y1="300" x1="-731.25"></line><line class="link" style="stroke-width: 1px; stroke: #0000ff;" y2="450" x2="-431.25" y1="300" x1="-356.25"></line><line class="link" style="stroke-width: 1px; stroke: #0000ff;" y2="450" x2="-281.25" y1="300" x1="-356.25"></line><line class="link" style="stroke-width: 1px; stroke: #0000ff;" y2="150" x2="93.75" y1="0" x1="0"></line><line class="link" style="stroke-width: 1px; stroke: #0000ff;" y2="150" x2="243.75" y1="0" x1="0"></line><line class="link" style="stroke-width: 1px; stroke: #0000ff;" y2="300" x2="-56.25" y1="150" x1="-56.25"></line><line class="link" style="stroke-width: 1px; stroke: #0000ff;" y2="600" x2="-431.25" y1="450" x1="-281.25"></line><line class="link" style="stroke-width: 1px; stroke: #0000ff;" y2="600" x2="-281.25" y1="450" x1="-281.25"></line><line class="link" style="stroke-width: 1px; stroke: #0000ff;" y2="600" x2="-131.25" y1="450" x1="-281.25"></line><line class="link" style="stroke-width: 1px; stroke: #0000ff;" y2="150" x2="543.75" y1="0" x1="0"></line><line class="link" style="stroke-width: 1px; stroke: #0000ff;" y2="300" x2="543.75" y1="150" x1="543.75"></line><line class="link" style="stroke-width: 1px; stroke: #0000ff;" y2="300" x2="243.75" y1="150" x1="243.75"></line></g><g><g transform=""><circle class="node" r="15" style="fill: #0000ff;"></circle><text font-family="sans-serif" fill="black" font-size="20" text-anchor="start" x="20" y="5">/</text></g><g transform="translate(-543.75,150)"><circle class="node" r="15" style="fill: #0000ff;"></circle><text font-family="sans-serif" fill="black" font-size="20" text-anchor="start" x="20" y="5">jagoda</text></g><g transform="translate(-56.25,150)"><circle class="node" r="15" style="fill: #ff0000;"></circle><text font-family="sans-serif" fill="black" font-size="20" text-anchor="start" x="20" y="5">ananas</text></g><g transform="translate(-731.25,300)"><circle class="node" r="15" style="fill: #0000ff;"></circle><text font-family="sans-serif" fill="black" font-size="20" text-anchor="start" x="20" y="5">mango</text></g><g transform="translate(-356.25,300)"><circle class="node" r="15" style="fill: #0000ff;"></circle><text font-family="sans-serif" fill="black" font-size="20" text-anchor="start" x="20" y="5">jagoda</text></g><g transform="translate(-731.25,450)"><circle class="node" r="15" style="fill: #0000ff;"></circle><text font-family="sans-serif" fill="black" font-size="20" text-anchor="start" x="20" y="5">hruska</text></g><g transform="translate(-431.25,450)"><circle class="node" r="15" style="fill: #0000ff;"></circle><text font-family="sans-serif" fill="black" font-size="20" text-anchor="start" x="20" y="5">jagoda</text></g><g transform="translate(-281.25,450)"><circle class="node" r="15" style="fill: #0000ff;"></circle><text font-family="sans-serif" fill="black" font-size="20" text-anchor="start" x="20" y="5">ananas</text></g><g transform="translate(93.75,150)"><circle class="node" r="15" style="fill: #0000ff;"></circle><text font-family="sans-serif" fill="black" font-size="20" text-anchor="start" x="20" y="5">sliva</text></g><g transform="translate(243.75,150)"><circle class="node" r="15" style="fill: #0000ff;"></circle><text font-family="sans-serif" fill="black" font-size="20" text-anchor="start" x="20" y="5">banana</text></g><g transform="translate(-56.25,300)"><circle class="node" r="15" style="fill: #0000ff;"></circle><text font-family="sans-serif" fill="black" font-size="20" text-anchor="start" x="20" y="5">jagoda</text></g><g transform="translate(-431.25,600)"><circle class="node" r="15" style="fill: #0000ff;"></circle><text font-family="sans-serif" fill="black" font-size="20" text-anchor="start" x="20" y="5">hruska</text></g><g transform="translate(-281.25,600)"><circle class="node" r="15" style="fill: #0000ff;"></circle><text font-family="sans-serif" fill="black" font-size="20" text-anchor="start" x="20" y="5">jagoda</text></g><g transform="translate(-131.25,600)"><circle class="node" r="15" style="fill: #0000ff;"></circle><text font-family="sans-serif" fill="black" font-size="20" text-anchor="start" x="20" y="5">banana</text></g><g transform="translate(543.75,150)"><circle class="node" r="15" style="fill: #0000ff;"></circle><text font-family="sans-serif" fill="black" font-size="20" text-anchor="start" x="20" y="5">mango</text></g><g transform="translate(543.75,300)"><circle class="node" r="15" style="fill: #0000ff;"></circle><text font-family="sans-serif" fill="black" font-size="20" text-anchor="start" x="20" y="5">ananas</text></g><g transform="translate(243.75,300)"><circle class="node" r="15" style="fill: #0000ff;"></circle><text font-family="sans-serif" fill="black" font-size="20" text-anchor="start" x="20" y="5">sliva</text></g></g></g></svg>