<svg version="1.1" xmlns="http://www.w3.org/2000/svg" width="1000" height="510"><g transform="translate(500, 30)"><g><line class="link" style="stroke-width: 1px; stroke: #0000ff;" y2="150" x2="-262.5" y1="0" x1="0"></line><line class="link" style="stroke-width: 1px; stroke: #0000ff;" y2="150" x2="262.5" y1="0" x1="0"></line><line class="link" style="stroke-width: 1px; stroke: #0000ff;" y2="300" x2="-337.5" y1="150" x1="-262.5"></line><line class="link" style="stroke-width: 1px; stroke: #0000ff;" y2="300" x2="-187.5" y1="150" x1="-262.5"></line><line class="link" style="stroke-width: 1px; stroke: #0000ff;" y2="300" x2="112.5" y1="150" x1="262.5"></line><line class="link" style="stroke-width: 1px; stroke: #0000ff;" y2="300" x2="412.5" y1="150" x1="262.5"></line><line class="link" style="stroke-width: 1px; stroke: #0000ff;" y2="450" x2="412.5" y1="300" x1="412.5"></line><line class="link" style="stroke-width: 1px; stroke: #0000ff;" y2="450" x2="112.5" y1="300" x1="112.5"></line></g><g><g transform=""><circle class="node" r="15" style="fill: #0000ff;"></circle><text font-family="sans-serif" fill="black" font-size="20" text-anchor="start" x="20" y="5">[0,0,4]</text></g><g transform="translate(-262.5,150)"><circle class="node" r="15" style="fill: #0000ff;"></circle><text font-family="sans-serif" fill="black" font-size="20" text-anchor="start" x="20" y="5">[2,0,2]</text></g><g transform="translate(262.5,150)"><circle class="node" r="15" style="fill: #0000ff;"></circle><text font-family="sans-serif" fill="black" font-size="20" text-anchor="start" x="20" y="5">[0,3,1]</text></g><g transform="translate(-337.5,300)"><circle class="node" r="15" style="fill: #0000ff;"></circle><text font-family="sans-serif" fill="black" font-size="20" text-anchor="start" x="20" y="5">[0,2,2]</text></g><g transform="translate(-187.5,300)"><circle class="node" r="15" style="fill: #0000ff;"></circle><text font-family="sans-serif" fill="black" font-size="20" text-anchor="start" x="20" y="5">[2,2,0]</text></g><g transform="translate(112.5,300)"><circle class="node" r="15" style="fill: #0000ff;"></circle><text font-family="sans-serif" fill="black" font-size="20" text-anchor="start" x="20" y="5">[2,1,1]</text></g><g transform="translate(412.5,300)"><circle class="node" r="15" style="fill: #0000ff;"></circle><text font-family="sans-serif" fill="black" font-size="20" text-anchor="start" x="20" y="5">[1,3,0]</text></g><g transform="translate(412.5,450)"><circle class="node" r="15" style="fill: #0000ff;"></circle><text font-family="sans-serif" fill="black" font-size="20" text-anchor="start" x="20" y="5">[1,0,3]</text></g><g transform="translate(112.5,450)"><circle class="node" r="15" style="fill: #0000ff;"></circle><text font-family="sans-serif" fill="black" font-size="20" text-anchor="start" x="20" y="5">[0,1,3]</text></g></g></g></svg>