<svg version="1.1" xmlns="http://www.w3.org/2000/svg" width="354" height="330"><g><g transform="translate(60,120)"><circle class="node" r="15" style="fill: #808080;"></circle><text font-family="sans-serif" fill="yellow" font-size="20" text-anchor="middle" x="0" y="5"></text></g><g transform="translate(60,150)"><circle class="node" r="15" style="fill: #808080;"></circle><text font-family="sans-serif" fill="yellow" font-size="20" text-anchor="middle" x="0" y="5"></text></g><g transform="translate(60,180)"><circle class="node" r="15" style="fill: #808080;"></circle><text font-family="sans-serif" fill="yellow" font-size="20" text-anchor="middle" x="0" y="5"></text></g><g transform="translate(60,210)"><circle class="node" r="15" style="fill: #808080;"></circle><text font-family="sans-serif" fill="yellow" font-size="20" text-anchor="middle" x="0" y="5"></text></g><g transform="translate(60,240)"><circle class="node" r="15" style="fill: #808080;"></circle><text font-family="sans-serif" fill="yellow" font-size="20" text-anchor="middle" x="0" y="5"></text></g><g transform="translate(90,90)"><circle class="node" r="15" style="fill: #008000;"></circle><text font-family="sans-serif" fill="yellow" font-size="20" text-anchor="middle" x="0" y="5">10</text></g><g transform="translate(90,120)"><circle class="node" r="15" style="fill: #808080;"></circle><text font-family="sans-serif" fill="yellow" font-size="20" text-anchor="middle" x="0" y="5"></text></g><g transform="translate(120,120)"><circle class="node" r="15" style="fill: #808080;"></circle><text font-family="sans-serif" fill="yellow" font-size="20" text-anchor="middle" x="0" y="5"></text></g><g transform="translate(120,180)"><circle class="node" r="15" style="fill: #808080;"></circle><text font-family="sans-serif" fill="yellow" font-size="20" text-anchor="middle" x="0" y="5"></text></g><g transform="translate(120,240)"><circle class="node" r="15" style="fill: #808080;"></circle><text font-family="sans-serif" fill="yellow" font-size="20" text-anchor="middle" x="0" y="5"></text></g><g transform="translate(150,120)"><circle class="node" r="15" style="fill: #808080;"></circle><text font-family="sans-serif" fill="yellow" font-size="20" text-anchor="middle" x="0" y="5"></text></g><g transform="translate(150,180)"><circle class="node" r="15" style="fill: #808080;"></circle><text font-family="sans-serif" fill="yellow" font-size="20" text-anchor="middle" x="0" y="5"></text></g><g transform="translate(150,240)"><circle class="node" r="15" style="fill: #808080;"></circle><text font-family="sans-serif" fill="yellow" font-size="20" text-anchor="middle" x="0" y="5"></text></g><g transform="translate(180,120)"><circle class="node" r="15" style="fill: #808080;"></circle><text font-family="sans-serif" fill="yellow" font-size="20" text-anchor="middle" x="0" y="5"></text></g><g transform="translate(180,180)"><circle class="node" r="15" style="fill: #808080;"></circle><text font-family="sans-serif" fill="yellow" font-size="20" text-anchor="middle" x="0" y="5"></text></g><g transform="translate(180,240)"><circle class="node" r="15" style="fill: #808080;"></circle><text font-family="sans-serif" fill="yellow" font-size="20" text-anchor="middle" x="0" y="5"></text></g><g transform="translate(210,120)"><circle class="node" r="15" style="fill: #808080;"></circle><text font-family="sans-serif" fill="yellow" font-size="20" text-anchor="middle" x="0" y="5"></text></g><g transform="translate(210,180)"><circle class="node" r="15" style="fill: #808080;"></circle><text font-family="sans-serif" fill="yellow" font-size="20" text-anchor="middle" x="0" y="5"></text></g><g transform="translate(210,210)"><circle class="node" r="15" style="fill: #0000ff;"></circle><text font-family="sans-serif" fill="yellow" font-size="20" text-anchor="middle" x="0" y="5">0</text></g><g transform="translate(210,240)"><circle class="node" r="15" style="fill: #808080;"></circle><text font-family="sans-serif" fill="yellow" font-size="20" text-anchor="middle" x="0" y="5"></text></g><g transform="translate(270,120)"><circle class="node" r="15" style="fill: #808080;"></circle><text font-family="sans-serif" fill="yellow" font-size="20" text-anchor="middle" x="0" y="5"></text></g><g transform="translate(270,150)"><circle class="node" r="15" style="fill: #808080;"></circle><text font-family="sans-serif" fill="yellow" font-size="20" text-anchor="middle" x="0" y="5"></text></g><g transform="translate(270,180)"><circle class="node" r="15" style="fill: #808080;"></circle><text font-family="sans-serif" fill="yellow" font-size="20" text-anchor="middle" x="0" y="5"></text></g><g transform="translate(270,210)"><circle class="node" r="15" style="fill: #808080;"></circle><text font-family="sans-serif" fill="yellow" font-size="20" text-anchor="middle" x="0" y="5"></text></g><g transform="translate(270,240)"><circle class="node" r="15" style="fill: #808080;"></circle><text font-family="sans-serif" fill="yellow" font-size="20" text-anchor="middle" x="0" y="5"></text></g><g transform="translate(270,270)"><circle class="node" r="15" style="fill: #808080;"></circle><text font-family="sans-serif" fill="yellow" font-size="20" text-anchor="middle" x="0" y="5"></text></g><g transform="translate(180,210)"><circle class="node" r="15" style="fill: #0000ff;"></circle><text font-family="sans-serif" fill="yellow" font-size="20" text-anchor="middle" x="0" y="5">1</text></g><g transform="translate(240,210)"><circle class="node" r="15" style="fill: #0000ff;"></circle><text font-family="sans-serif" fill="yellow" font-size="20" text-anchor="middle" x="0" y="5">1</text></g><g transform="translate(240,180)"><circle class="node" r="15" style="fill: #0000ff;"></circle><text font-family="sans-serif" fill="yellow" font-size="20" text-anchor="middle" x="0" y="5">2</text></g><g transform="translate(240,240)"><circle class="node" r="15" style="fill: #0000ff;"></circle><text font-family="sans-serif" fill="yellow" font-size="20" text-anchor="middle" x="0" y="5">2</text></g><g transform="translate(150,210)"><circle class="node" r="15" style="fill: #0000ff;"></circle><text font-family="sans-serif" fill="yellow" font-size="20" text-anchor="middle" x="0" y="5">2</text></g><g transform="translate(240,270)"><circle class="node" r="15" style="fill: #0000ff;"></circle><text font-family="sans-serif" fill="yellow" font-size="20" text-anchor="middle" x="0" y="5">3</text></g><g transform="translate(240,150)"><circle class="node" r="15" style="fill: #0000ff;"></circle><text font-family="sans-serif" fill="yellow" font-size="20" text-anchor="middle" x="0" y="5">3</text></g><g transform="translate(120,210)"><circle class="node" r="15" style="fill: #0000ff;"></circle><text font-family="sans-serif" fill="yellow" font-size="20" text-anchor="middle" x="0" y="5">3</text></g><g transform="translate(210,270)"><circle class="node" r="15" style="fill: #0000ff;"></circle><text font-family="sans-serif" fill="yellow" font-size="20" text-anchor="middle" x="0" y="5">4</text></g><g transform="translate(240,300)"><circle class="node" r="15" style="fill: #0000ff;"></circle><text font-family="sans-serif" fill="yellow" font-size="20" text-anchor="middle" x="0" y="5">4</text></g><g transform="translate(210,150)"><circle class="node" r="15" style="fill: #0000ff;"></circle><text font-family="sans-serif" fill="yellow" font-size="20" text-anchor="middle" x="0" y="5">4</text></g><g transform="translate(240,120)"><circle class="node" r="15" style="fill: #0000ff;"></circle><text font-family="sans-serif" fill="yellow" font-size="20" text-anchor="middle" x="0" y="5">4</text></g><g transform="translate(90,210)"><circle class="node" r="15" style="fill: #0000ff;"></circle><text font-family="sans-serif" fill="yellow" font-size="20" text-anchor="middle" x="0" y="5">4</text></g><g transform="translate(180,270)"><circle class="node" r="15" style="fill: #0000ff;"></circle><text font-family="sans-serif" fill="yellow" font-size="20" text-anchor="middle" x="0" y="5">5</text></g><g transform="translate(210,300)"><circle class="node" r="15" style="fill: #0000ff;"></circle><text font-family="sans-serif" fill="yellow" font-size="20" text-anchor="middle" x="0" y="5">5</text></g><g transform="translate(270,300)"><circle class="node" r="15" style="fill: #0000ff;"></circle><text font-family="sans-serif" fill="yellow" font-size="20" text-anchor="middle" x="0" y="5">5</text></g><g transform="translate(180,150)"><circle class="node" r="15" style="fill: #0000ff;"></circle><text font-family="sans-serif" fill="yellow" font-size="20" text-anchor="middle" x="0" y="5">5</text></g><g transform="translate(240,90)"><circle class="node" r="15" style="fill: #0000ff;"></circle><text font-family="sans-serif" fill="yellow" font-size="20" text-anchor="middle" x="0" y="5">5</text></g><g transform="translate(90,180)"><circle class="node" r="15" style="fill: #0000ff;"></circle><text font-family="sans-serif" fill="yellow" font-size="20" text-anchor="middle" x="0" y="5">5</text></g><g transform="translate(90,240)"><circle class="node" r="15" style="fill: #0000ff;"></circle><text font-family="sans-serif" fill="yellow" font-size="20" text-anchor="middle" x="0" y="5">5</text></g><g transform="translate(150,270)"><circle class="node" r="15" style="fill: #0000ff;"></circle><text font-family="sans-serif" fill="yellow" font-size="20" text-anchor="middle" x="0" y="5">6</text></g><g transform="translate(180,300)"><circle class="node" r="15" style="fill: #0000ff;"></circle><text font-family="sans-serif" fill="yellow" font-size="20" text-anchor="middle" x="0" y="5">6</text></g><g transform="translate(300,300)"><circle class="node" r="15" style="fill: #0000ff;"></circle><text font-family="sans-serif" fill="yellow" font-size="20" text-anchor="middle" x="0" y="5">6</text></g><g transform="translate(150,150)"><circle class="node" r="15" style="fill: #0000ff;"></circle><text font-family="sans-serif" fill="yellow" font-size="20" text-anchor="middle" x="0" y="5">6</text></g><g transform="translate(210,90)"><circle class="node" r="15" style="fill: #0000ff;"></circle><text font-family="sans-serif" fill="yellow" font-size="20" text-anchor="middle" x="0" y="5">6</text></g><g transform="translate(240,60)"><circle class="node" r="15" style="fill: #0000ff;"></circle><text font-family="sans-serif" fill="yellow" font-size="20" text-anchor="middle" x="0" y="5">6</text></g><g transform="translate(270,90)"><circle class="node" r="15" style="fill: #0000ff;"></circle><text font-family="sans-serif" fill="yellow" font-size="20" text-anchor="middle" x="0" y="5">6</text></g><g transform="translate(90,270)"><circle class="node" r="15" style="fill: #0000ff;"></circle><text font-family="sans-serif" fill="yellow" font-size="20" text-anchor="middle" x="0" y="5">6</text></g><g transform="translate(90,150)"><circle class="node" r="15" style="fill: #0000ff;"></circle><text font-family="sans-serif" fill="yellow" font-size="20" text-anchor="middle" x="0" y="5">6</text></g><g transform="translate(120,270)"><circle class="node" r="15" style="fill: #0000ff;"></circle><text font-family="sans-serif" fill="yellow" font-size="20" text-anchor="middle" x="0" y="5">7</text></g><g transform="translate(150,300)"><circle class="node" r="15" style="fill: #0000ff;"></circle><text font-family="sans-serif" fill="yellow" font-size="20" text-anchor="middle" x="0" y="5">7</text></g><g transform="translate(300,270)"><circle class="node" r="15" style="fill: #0000ff;"></circle><text font-family="sans-serif" fill="yellow" font-size="20" text-anchor="middle" x="0" y="5">7</text></g><g transform="translate(120,150)"><circle class="node" r="15" style="fill: #0000ff;"></circle><text font-family="sans-serif" fill="yellow" font-size="20" text-anchor="middle" x="0" y="5">7</text></g><g transform="translate(270,60)"><circle class="node" r="15" style="fill: #0000ff;"></circle><text font-family="sans-serif" fill="yellow" font-size="20" text-anchor="middle" x="0" y="5">7</text></g><g transform="translate(300,90)"><circle class="node" r="15" style="fill: #0000ff;"></circle><text font-family="sans-serif" fill="yellow" font-size="20" text-anchor="middle" x="0" y="5">7</text></g><g transform="translate(180,90)"><circle class="node" r="15" style="fill: #0000ff;"></circle><text font-family="sans-serif" fill="yellow" font-size="20" text-anchor="middle" x="0" y="5">7</text></g><g transform="translate(210,60)"><circle class="node" r="15" style="fill: #0000ff;"></circle><text font-family="sans-serif" fill="yellow" font-size="20" text-anchor="middle" x="0" y="5">7</text></g><g transform="translate(240,30)"><circle class="node" r="15" style="fill: #0000ff;"></circle><text font-family="sans-serif" fill="yellow" font-size="20" text-anchor="middle" x="0" y="5">7</text></g><g transform="translate(60,270)"><circle class="node" r="15" style="fill: #0000ff;"></circle><text font-family="sans-serif" fill="yellow" font-size="20" text-anchor="middle" x="0" y="5">7</text></g><g transform="translate(90,300)"><circle class="node" r="15" style="fill: #0000ff;"></circle><text font-family="sans-serif" fill="yellow" font-size="20" text-anchor="middle" x="0" y="5">7</text></g><g transform="translate(120,300)"><circle class="node" r="15" style="fill: #0000ff;"></circle><text font-family="sans-serif" fill="yellow" font-size="20" text-anchor="middle" x="0" y="5">8</text></g><g transform="translate(300,240)"><circle class="node" r="15" style="fill: #0000ff;"></circle><text font-family="sans-serif" fill="yellow" font-size="20" text-anchor="middle" x="0" y="5">8</text></g><g transform="translate(300,60)"><circle class="node" r="15" style="fill: #0000ff;"></circle><text font-family="sans-serif" fill="yellow" font-size="20" text-anchor="middle" x="0" y="5">8</text></g><g transform="translate(300,120)"><circle class="node" r="15" style="fill: #0000ff;"></circle><text font-family="sans-serif" fill="yellow" font-size="20" text-anchor="middle" x="0" y="5">8</text></g><g transform="translate(270,30)"><circle class="node" r="15" style="fill: #0000ff;"></circle><text font-family="sans-serif" fill="yellow" font-size="20" text-anchor="middle" x="0" y="5">8</text></g><g transform="translate(150,90)"><circle class="node" r="15" style="fill: #0000ff;"></circle><text font-family="sans-serif" fill="yellow" font-size="20" text-anchor="middle" x="0" y="5">8</text></g><g transform="translate(180,60)"><circle class="node" r="15" style="fill: #0000ff;"></circle><text font-family="sans-serif" fill="yellow" font-size="20" text-anchor="middle" x="0" y="5">8</text></g><g transform="translate(210,30)"><circle class="node" r="15" style="fill: #0000ff;"></circle><text font-family="sans-serif" fill="yellow" font-size="20" text-anchor="middle" x="0" y="5">8</text></g><g transform="translate(30,270)"><circle class="node" r="15" style="fill: #0000ff;"></circle><text font-family="sans-serif" fill="yellow" font-size="20" text-anchor="middle" x="0" y="5">8</text></g><g transform="translate(60,300)"><circle class="node" r="15" style="fill: #0000ff;"></circle><text font-family="sans-serif" fill="yellow" font-size="20" text-anchor="middle" x="0" y="5">8</text></g><g transform="translate(300,210)"><circle class="node" r="15" style="fill: #0000ff;"></circle><text font-family="sans-serif" fill="yellow" font-size="20" text-anchor="middle" x="0" y="5">9</text></g><g transform="translate(300,150)"><circle class="node" r="15" style="fill: #0000ff;"></circle><text font-family="sans-serif" fill="yellow" font-size="20" text-anchor="middle" x="0" y="5">9</text></g><g transform="translate(300,30)"><circle class="node" r="15" style="fill: #0000ff;"></circle><text font-family="sans-serif" fill="yellow" font-size="20" text-anchor="middle" x="0" y="5">9</text></g><g transform="translate(120,90)"><circle class="node" r="15" style="fill: #ff0000;"></circle><text font-family="sans-serif" fill="yellow" font-size="20" text-anchor="middle" x="0" y="5">9</text></g><g transform="translate(150,60)"><circle class="node" r="15" style="fill: #00ffff;"></circle><text font-family="sans-serif" fill="yellow" font-size="20" text-anchor="middle" x="0" y="5">9</text></g><g transform="translate(180,30)"><circle class="node" r="15" style="fill: #00ffff;"></circle><text font-family="sans-serif" fill="yellow" font-size="20" text-anchor="middle" x="0" y="5">9</text></g><g transform="translate(30,240)"><circle class="node" r="15" style="fill: #00ffff;"></circle><text font-family="sans-serif" fill="yellow" font-size="20" text-anchor="middle" x="0" y="5">9</text></g><g transform="translate(30,300)"><circle class="node" r="15" style="fill: #00ffff;"></circle><text font-family="sans-serif" fill="yellow" font-size="20" text-anchor="middle" x="0" y="5">9</text></g><g transform="translate(300,180)"><circle class="node" r="15" style="fill: #00ffff;"></circle><text font-family="sans-serif" fill="yellow" font-size="20" text-anchor="middle" x="0" y="5">10</text></g></g></svg>