<svg version="1.1" xmlns="http://www.w3.org/2000/svg" width="782" height="600"><defs><marker id="arrow" viewBox="0 -5 10 10" refX="20" refY="-1.5" markerWidth="6" markerHeight="6" orient="auto"><path d="M0,-5L10,0L0,5"></path></marker></defs><g><path fill="none" marker-end="url(#arrow)" stroke-width="2.5" style="stroke: #0000ff;" d="M481.1481286521919,123.48605597527407A181.6769340805793,181.6769340805793 0 0,1 348.7634463064409,247.90793611351089"></path><path fill="none" marker-end="url(#arrow)" stroke-width="2.5" style="stroke: #0000ff;" d="M222.16984028288368,378.2615163438828A181.70854950971253,181.70854950971253 0 0,1 348.7634463064409,247.90793611351089"></path><path fill="none" marker-end="url(#arrow)" stroke-width="2.5" style="stroke: #0000ff;" d="M481.1481286521919,123.48605597527407A188.206008168076,188.206008168076 0 0,1 533.2415946170281,304.3389583969171"></path><path fill="none" marker-end="url(#arrow)" stroke-width="2.5" style="stroke: #0000ff;" d="M348.7634463064409,247.90793611351089A192.916166974293,192.916166974293 0 0,1 533.2415946170281,304.3389583969171"></path><path fill="none" marker-end="url(#arrow)" stroke-width="2.5" style="stroke: #0000ff;" d="M348.7634463064409,247.90793611351089A192.91994441691733,192.91994441691733 0 0,1 402.15703369224843,433.29194238131333"></path><path fill="none" marker-end="url(#arrow)" stroke-width="2.5" style="stroke: #ff0000;" d="M533.2415946170281,304.3389583969171A183.88048888156194,183.88048888156194 0 0,1 402.15703369224843,433.29194238131333"></path><path fill="none" marker-end="url(#arrow)" stroke-width="2.5" style="stroke: #0000ff;" d="M402.15703369224843,433.29194238131333A188.21194856129932,188.21194856129932 0 0,1 222.16984028288368,378.2615163438828"></path></g><g><g transform="translate(481.1481286521919, 123.48605597527407)"><circle class="node" r="15" style="fill: #0000ff;"></circle><text font-family="sans-serif" fill="yellow" font-size="20" text-anchor="middle" x="0" y="5">0</text></g><g transform="translate(348.7634463064409, 247.90793611351089)"><circle class="node" r="15" style="fill: #0000ff;"></circle><text font-family="sans-serif" fill="yellow" font-size="20" text-anchor="middle" x="0" y="5">3</text></g><g transform="translate(222.16984028288368, 378.2615163438828)"><circle class="node" r="15" style="fill: #0000ff;"></circle><text font-family="sans-serif" fill="yellow" font-size="20" text-anchor="middle" x="0" y="5"></text></g><g transform="translate(533.2415946170281, 304.3389583969171)"><circle class="node" r="15" style="fill: #ff0000;"></circle><text font-family="sans-serif" fill="yellow" font-size="20" text-anchor="middle" x="0" y="5">2</text></g><g transform="translate(402.15703369224843, 433.29194238131333)"><circle class="node" r="15" style="fill: #0000ff;"></circle><text font-family="sans-serif" fill="yellow" font-size="20" text-anchor="middle" x="0" y="5">6</text></g></g></svg>